<svg xmlns="http://www.w3.org/2000/svg" width="76" height="76" viewBox="0 0 76 76">
  <g id="Group_2" data-name="Group 2" transform="translate(-891 -58)">
    <circle id="Ellipse_1" data-name="Ellipse 1" cx="38" cy="38" r="38" transform="translate(891 58)"/>
    <path id="Icon_metro-spoon-fork" data-name="Icon metro-spoon-fork" d="M10.6,1.928c-3.9,0-7.063,3.689-7.063,8.24,0,3.9,2.318,7.161,5.434,8.02L7.8,37.249a2.193,2.193,0,0,0,2.21,2.35h1.177a2.193,2.193,0,0,0,2.21-2.35L12.227,18.188c3.115-.858,5.434-4.123,5.434-8.02,0-4.551-3.162-8.24-7.063-8.24Zm23.74,0L32.376,13.7H30.9L29.924,1.928h-.981L27.962,13.7H26.49L24.528,1.928h-.981v15.3a1.177,1.177,0,0,0,1.177,1.177H27.79l-1.156,18.84a2.193,2.193,0,0,0,2.21,2.35h1.177a2.193,2.193,0,0,0,2.21-2.35l-1.156-18.84h3.066a1.177,1.177,0,0,0,1.177-1.177V1.928Z" transform="translate(909.472 74.861)" fill="#fff"/>
  </g>
</svg>
